# xmcd
#
# Track frame offsets: 
#        150
#        13867
#        26182
#        42384
#        55416
#        66667
#        80252
#        94262
#        108154
#        123540
#        135246
#        147741
#
# Disc length: 2112 seconds
#
# Revision: 0
# Processed by: cddbd v1.5.2PL0 Copyright (c) Steve Scherf et al.
# Submitted via: ExactAudioCopy v0.95b4
#
DISCID=b1083e0c
DTITLE=Louis Armstrong - Louis And The Good Book
DYEAR=1962
DGENRE=Gospel
TTITLE0=Nobody Knows
TTITLE1=Shadrack
TTITLE2=Go down Moses
TTITLE3=Rock My Soul
TTITLE4=Ezekiel Saw The Wheel
TTITLE5=On My Way
TTITLE6=Down By The Riverside
TTITLE7=Swing Low, Sweet Chariot
TTITLE8=Sometimes I Feel
TTITLE9=Jonah And The Whale
TTITLE10=Didn't It Rain
TTITLE11=This Train
EXTD=
EXTT0=
EXTT1=
EXTT2=
EXTT3=
EXTT4=
EXTT5=
EXTT6=
EXTT7=
EXTT8=
EXTT9=
EXTT10=
EXTT11=
PLAYORDER=
